
<svg xmlns="http://www.w3.org/2000/svg" xmlns:xlink="http://www.w3.org/1999/xlink" viewBox="0 0 1440 900" width="1440" height="900" fill="none">
  <rect width="1440" height="900" fill="#fafafa"></rect>
  <g opacity="100%">
    <rect x="370" y="215" width="703" height="470" fill="#f2f2f2" rx="8" filter="url(#filter_dshadow_8_0_2_0000001f)"></rect>
  </g>
  <rect></rect>
  <g opacity="100%">
    <text x="546" y="377.5" font-family="Poppins" font-size="48" fill="#030303" letter-spacing="0" font-weight="800" font-style="normal">TaskCommand</text>
  </g>
  <g opacity="100%">
    <rect filter="url(#filter_dshadow_8_0_2_0000001f)" x="466" y="330" width="60" height="60" fill="#030303" rx="10"></rect>
    <svg xmlns="http://www.w3.org/2000/svg" viewBox="0 0 576 512" width="30" height="30" fill="#fc0" x="481" y="345">
      <path d="M9.372 86.63C-3.124 74.13-3.124 53.87 9.372 41.37C21.87 28.88 42.13 28.88 54.63 41.37L246.6 233.4C259.1 245.9 259.1 266.1 246.6 278.6L54.63 470.6C42.13 483.1 21.87 483.1 9.372 470.6C-3.124 458.1-3.124 437.9 9.372 425.4L178.7 256L9.372 86.63zM544 416C561.7 416 576 430.3 576 448C576 465.7 561.7 480 544 480H256C238.3 480 224 465.7 224 448C224 430.3 238.3 416 256 416H544z"></path>
    </svg>
  </g>
  <g opacity="100%">
    <rect filter="url(#filter_dshadow_10_0_0_0000001a)" x="578" y="522" width="285" height="45" fill="#fc0" rx="8"></rect>
    <text x="589" y="553" font-family="Poppins" font-size="24" fill="#000" letter-spacing="0" font-weight="normal" font-style="normal">
      <tspan font-weight="bold">Sign In with Microsoft</tspan>
    </text>
  </g>
  <g opacity="100%">
    <text x="448" y="442.5" font-family="Poppins" font-size="32" fill="#000" letter-spacing="0" font-weight="normal" font-style="normal">
      <tspan x="448">Focus. Plan. Command your tasks.</tspan>
    </text>
  </g>
  <g opacity="100%">
    <text x="597" y="600" font-family="Poppins" font-size="14" fill="#000" letter-spacing="0" font-weight="normal" font-style="normal">
      <tspan x="597">Secure Authentication via Microsoft</tspan>
    </text>
  </g>
  <defs>
    <filter id="filter_dshadow_8_0_2_0000001f" color-interpolation-filters="sRGB" filterUnits="userSpaceOnUse">
      <feFlood flood-opacity="0" result="bg-fix"></feFlood>
      <feColorMatrix in="SourceAlpha" type="matrix" values="0 0 0 0 0 0 0 0 0 0 0 0 0 0 0 0 0 0 127 0" result="alpha"></feColorMatrix>
      <feOffset dx="0" dy="2"></feOffset>
      <feGaussianBlur stdDeviation="4"></feGaussianBlur>
      <feComposite in2="alpha" operator="out"></feComposite>
      <feColorMatrix type="matrix" values="0 0 0 0 0 0 0 0 0 0 0 0 0 0 0 0 0 0 0.12 0"></feColorMatrix>
      <feBlend mode="normal" in2="bg-fix" result="bg-fix-filter_dshadow_8_0_2_0000001f"></feBlend>
      <feBlend in="SourceGraphic" in2="bg-fix-filter_dshadow_8_0_2_0000001f" result="shape"></feBlend>
    </filter>
    <filter id="filter_dshadow_10_0_0_0000001a" color-interpolation-filters="sRGB" filterUnits="userSpaceOnUse">
      <feFlood flood-opacity="0" result="bg-fix"></feFlood>
      <feColorMatrix in="SourceAlpha" type="matrix" values="0 0 0 0 0 0 0 0 0 0 0 0 0 0 0 0 0 0 127 0" result="alpha"></feColorMatrix>
      <feOffset dx="0" dy="0"></feOffset>
      <feGaussianBlur stdDeviation="5"></feGaussianBlur>
      <feComposite in2="alpha" operator="out"></feComposite>
      <feColorMatrix type="matrix" values="0 0 0 0 0 0 0 0 0 0 0 0 0 0 0 0 0 0 0.1 0"></feColorMatrix>
      <feBlend mode="normal" in2="bg-fix" result="bg-fix-filter_dshadow_10_0_0_0000001a"></feBlend>
      <feBlend in="SourceGraphic" in2="bg-fix-filter_dshadow_10_0_0_0000001a" result="shape"></feBlend>
    </filter>
    <style id="google">@import url(https://fonts.googleapis.com/css2?family=Poppins:ital,wght@0,100;0,200;0,300;0,400;0,500;0,600;0,700;0,800;0,900;1,100;1,200;1,300;1,400;1,500;1,600;1,700;1,800;1,900&amp;display=swap);
</style>
    <style id="brand"></style>
  </defs>
</svg>